<?xml version="1.0"?>
<svg xmlns="http://www.w3.org/2000/svg" xmlns:xlink="http://www.w3.org/1999/xlink" version="1.1" id="Capa_1" x="0px" y="0px" viewBox="0 0 286.294 286.294" style="enable-background:new 0 0 286.294 286.294;" xml:space="preserve" width="512px" height="512px" class=""><g><g>
	<path d="M213.077,241.894L213.077,241.894v-52.169c0-38.621-31.308-69.929-69.929-69.929c-38.621,0-69.93,31.308-69.93,69.929   v52.169c-12.261,0-22.2,9.939-22.2,22.2c0,12.261,9.939,22.2,22.2,22.2h139.859c12.261,0,22.2-9.939,22.2-22.2   C235.277,251.833,225.338,241.894,213.077,241.894z M91.326,190.616c0-13.02,4.849-25.469,13.653-35.051   c3.736-4.068,10.062-4.336,14.129-0.598c4.067,3.736,4.335,10.063,0.598,14.129c-5.403,5.882-8.38,13.524-8.38,21.52v28.878   c0,5.523-4.478,10-10,10c-5.522,0-10-4.477-10-10V190.616z" data-original="#000000" class="active-path" data-old_color="#000000" fill="#FFFFFF"/>
	<path d="M143.147,86.948c8.284,0,15-6.716,15-15V15c0-8.284-6.716-15-15-15c-8.284,0-15,6.716-15,15v56.948   C128.147,80.232,134.863,86.948,143.147,86.948z" data-original="#000000" class="active-path" data-old_color="#000000" fill="#FFFFFF"/>
	<path d="M75.936,118.557c3.839,0,7.678-1.465,10.606-4.394c5.858-5.857,5.858-15.355,0-21.213L46.274,52.682   c-5.857-5.857-15.355-5.857-21.213,0c-5.858,5.858-5.858,15.356,0,21.213l40.269,40.269   C68.258,117.092,72.097,118.557,75.936,118.557z" data-original="#000000" class="active-path" data-old_color="#000000" fill="#FFFFFF"/>
	<path d="M261.233,52.682c-5.857-5.859-15.356-5.857-21.213,0l-40.268,40.27c-5.858,5.858-5.857,15.355,0,21.213   c2.929,2.93,6.768,4.394,10.607,4.394c3.839,0,7.678-1.465,10.606-4.394l40.268-40.27C267.091,68.036,267.09,58.539,261.233,52.682   z" data-original="#000000" class="active-path" data-old_color="#000000" fill="#FFFFFF"/>
</g></g> </svg>
